<svg xmlns="http://www.w3.org/2000/svg" width="23.75mm" height="15mm" viewBox="-5.5 -3 9.5 6">
<title>Emergency stop, mushroom push-button with latching break contact</title>
<g fill="none" stroke="#000" stroke-linecap="butt" stroke-linejoin="miter">
<line x1="0" y1="-2" x2="0" y2="-1" stroke-width="0.1"/>
<line x1="0" y1="-1" x2="1.25" y2="-1" stroke-width="0.1"/>
<line x1="0" y1="2" x2="0" y2="1" stroke-width="0.1"/>
<line x1="0" y1="1" x2="1.125" y2="-1.25" stroke-width="0.1"/>
<line x1="-2.75" y1="0" x2="-3.75" y2="0" stroke-width="0.1"/>
<line x1="-3.75" y1="-0.75" x2="-3.75" y2="0.75" stroke-width="0.1"/>
<path d="M -3.75 0.75 A 0.75 0.75 0 0 1 -3.75 -0.75" stroke-width="0.1"/>
<line x1="0.5" y1="0" x2="-1.75" y2="0" stroke-width="0.1" stroke-dasharray="0.5 0.25"/>
<line x1="-2.75" y1="0" x2="-1.75" y2="0" stroke-width="0.1"/>
<polyline points="-3,0 -3,-0.5 -1.75,0" stroke-width="0.1"/>
<line x1="-1.125" y1="-1.5" x2="-1.125" y2="0" stroke-width="0.1" stroke-dasharray="0.5 0.25"/>
<polyline points="-1.75,-2 -1.75,-1.5 -0.5,-1.5 -0.5,-1" stroke-width="0.1"/>
<circle cx="2.25" cy="0" r="0.75" stroke-width="0.1"/>
<line x1="1.75" y1="0" x2="2.75" y2="0" stroke-width="0.1"/>
<polyline points="2.5,-0.25 2.75,0 2.5,0.25" stroke-width="0.1"/>
</g>
</svg>
