<svg xmlns="http://www.w3.org/2000/svg" width="10mm" height="15mm" viewBox="-2 -3 4 6">
<title>Transformer with two windings, general symbol</title>
<g fill="none" stroke="#000" stroke-linecap="butt" stroke-linejoin="miter">
<path d="M -1 -2 A 0.5 0.5 0 0 1 -1 -1" stroke-width="0.1"/>
<path d="M -1 -1 A 0.5 0.5 0 0 1 -1 0" stroke-width="0.1"/>
<path d="M -1 0 A 0.5 0.5 0 0 1 -1 1" stroke-width="0.1"/>
<path d="M -1 1 A 0.5 0.5 0 0 1 -1 2" stroke-width="0.1"/>
<path d="M 1 -1 A 0.5 0.5 0 0 1 1 -2" stroke-width="0.1"/>
<path d="M 1 0 A 0.5 0.5 0 0 1 1 -1" stroke-width="0.1"/>
<path d="M 1 1 A 0.5 0.5 0 0 1 1 0" stroke-width="0.1"/>
<path d="M 1 2 A 0.5 0.5 0 0 1 1 1" stroke-width="0.1"/>
</g>
</svg>
