<svg xmlns="http://www.w3.org/2000/svg" width="35.575mm" height="21.5mm" viewBox="-11 -4.3 14.23 8.6">
<title>Change-over break before make contact</title>
<g fill="none" stroke="#000" stroke-linecap="butt" stroke-linejoin="miter">
<line x1="0" y1="-2" x2="0" y2="-1" stroke-width="0.1"/>
<line x1="0" y1="2" x2="0" y2="1" stroke-width="0.1"/>
<line x1="-2" y1="2" x2="-2" y2="1" stroke-width="0.1"/>
<line x1="-2" y1="1" x2="-1" y2="1" stroke-width="0.1"/>
<line x1="0" y1="-1" x2="-1.125" y2="1.25" stroke-width="0.1"/>
</g>
<g class="annotation">
<circle class="grid" cx="-11" cy="-4" r="0.06" fill="#888" stroke="none"/>
<circle class="grid" cx="-10" cy="-4" r="0.06" fill="#888" stroke="none"/>
<circle class="grid" cx="-9" cy="-4" r="0.06" fill="#888" stroke="none"/>
<circle class="grid" cx="-8" cy="-4" r="0.06" fill="#888" stroke="none"/>
<circle class="grid" cx="-7" cy="-4" r="0.06" fill="#888" stroke="none"/>
<circle class="grid" cx="-6" cy="-4" r="0.06" fill="#888" stroke="none"/>
<circle class="grid" cx="-5" cy="-4" r="0.06" fill="#888" stroke="none"/>
<circle class="grid" cx="-4" cy="-4" r="0.06" fill="#888" stroke="none"/>
<circle class="grid" cx="-3" cy="-4" r="0.06" fill="#888" stroke="none"/>
<circle class="grid" cx="-2" cy="-4" r="0.06" fill="#888" stroke="none"/>
<circle class="grid" cx="-1" cy="-4" r="0.06" fill="#888" stroke="none"/>
<circle class="grid" cx="0" cy="-4" r="0.06" fill="#888" stroke="none"/>
<circle class="grid" cx="1" cy="-4" r="0.06" fill="#888" stroke="none"/>
<circle class="grid" cx="2" cy="-4" r="0.06" fill="#888" stroke="none"/>
<circle class="grid" cx="3" cy="-4" r="0.06" fill="#888" stroke="none"/>
<circle class="grid" cx="-11" cy="-3" r="0.06" fill="#888" stroke="none"/>
<circle class="grid" cx="-10" cy="-3" r="0.06" fill="#888" stroke="none"/>
<circle class="grid" cx="-9" cy="-3" r="0.06" fill="#888" stroke="none"/>
<circle class="grid" cx="-8" cy="-3" r="0.06" fill="#888" stroke="none"/>
<circle class="grid" cx="-7" cy="-3" r="0.06" fill="#888" stroke="none"/>
<circle class="grid" cx="-6" cy="-3" r="0.06" fill="#888" stroke="none"/>
<circle class="grid" cx="-5" cy="-3" r="0.06" fill="#888" stroke="none"/>
<circle class="grid" cx="-4" cy="-3" r="0.06" fill="#888" stroke="none"/>
<circle class="grid" cx="-3" cy="-3" r="0.06" fill="#888" stroke="none"/>
<circle class="grid" cx="-2" cy="-3" r="0.06" fill="#888" stroke="none"/>
<circle class="grid" cx="-1" cy="-3" r="0.06" fill="#888" stroke="none"/>
<circle class="grid" cx="0" cy="-3" r="0.06" fill="#888" stroke="none"/>
<circle class="grid" cx="1" cy="-3" r="0.06" fill="#888" stroke="none"/>
<circle class="grid" cx="2" cy="-3" r="0.06" fill="#888" stroke="none"/>
<circle class="grid" cx="3" cy="-3" r="0.06" fill="#888" stroke="none"/>
<circle class="grid" cx="-11" cy="-2" r="0.06" fill="#888" stroke="none"/>
<circle class="grid" cx="-10" cy="-2" r="0.06" fill="#888" stroke="none"/>
<circle class="grid" cx="-9" cy="-2" r="0.06" fill="#888" stroke="none"/>
<circle class="grid" cx="-8" cy="-2" r="0.06" fill="#888" stroke="none"/>
<circle class="grid" cx="-7" cy="-2" r="0.06" fill="#888" stroke="none"/>
<circle class="grid" cx="-6" cy="-2" r="0.06" fill="#888" stroke="none"/>
<circle class="grid" cx="-5" cy="-2" r="0.06" fill="#888" stroke="none"/>
<circle class="grid" cx="-4" cy="-2" r="0.06" fill="#888" stroke="none"/>
<circle class="grid" cx="-3" cy="-2" r="0.06" fill="#888" stroke="none"/>
<circle class="grid" cx="-2" cy="-2" r="0.06" fill="#888" stroke="none"/>
<circle class="grid" cx="-1" cy="-2" r="0.06" fill="#888" stroke="none"/>
<circle class="grid" cx="0" cy="-2" r="0.06" fill="#888" stroke="none"/>
<circle class="grid" cx="1" cy="-2" r="0.06" fill="#888" stroke="none"/>
<circle class="grid" cx="2" cy="-2" r="0.06" fill="#888" stroke="none"/>
<circle class="grid" cx="3" cy="-2" r="0.06" fill="#888" stroke="none"/>
<circle class="grid" cx="-11" cy="-1" r="0.06" fill="#888" stroke="none"/>
<circle class="grid" cx="-10" cy="-1" r="0.06" fill="#888" stroke="none"/>
<circle class="grid" cx="-9" cy="-1" r="0.06" fill="#888" stroke="none"/>
<circle class="grid" cx="-8" cy="-1" r="0.06" fill="#888" stroke="none"/>
<circle class="grid" cx="-7" cy="-1" r="0.06" fill="#888" stroke="none"/>
<circle class="grid" cx="-6" cy="-1" r="0.06" fill="#888" stroke="none"/>
<circle class="grid" cx="-5" cy="-1" r="0.06" fill="#888" stroke="none"/>
<circle class="grid" cx="-4" cy="-1" r="0.06" fill="#888" stroke="none"/>
<circle class="grid" cx="-3" cy="-1" r="0.06" fill="#888" stroke="none"/>
<circle class="grid" cx="-2" cy="-1" r="0.06" fill="#888" stroke="none"/>
<circle class="grid" cx="-1" cy="-1" r="0.06" fill="#888" stroke="none"/>
<circle class="grid" cx="0" cy="-1" r="0.06" fill="#888" stroke="none"/>
<circle class="grid" cx="1" cy="-1" r="0.06" fill="#888" stroke="none"/>
<circle class="grid" cx="2" cy="-1" r="0.06" fill="#888" stroke="none"/>
<circle class="grid" cx="3" cy="-1" r="0.06" fill="#888" stroke="none"/>
<circle class="grid" cx="-11" cy="0" r="0.06" fill="#888" stroke="none"/>
<circle class="grid" cx="-10" cy="0" r="0.06" fill="#888" stroke="none"/>
<circle class="grid" cx="-9" cy="0" r="0.06" fill="#888" stroke="none"/>
<circle class="grid" cx="-8" cy="0" r="0.06" fill="#888" stroke="none"/>
<circle class="grid" cx="-7" cy="0" r="0.06" fill="#888" stroke="none"/>
<circle class="grid" cx="-6" cy="0" r="0.06" fill="#888" stroke="none"/>
<circle class="grid" cx="-5" cy="0" r="0.06" fill="#888" stroke="none"/>
<circle class="grid" cx="-4" cy="0" r="0.06" fill="#888" stroke="none"/>
<circle class="grid" cx="-3" cy="0" r="0.06" fill="#888" stroke="none"/>
<circle class="grid" cx="-2" cy="0" r="0.06" fill="#888" stroke="none"/>
<circle class="grid" cx="-1" cy="0" r="0.06" fill="#888" stroke="none"/>
<circle class="grid" cx="0" cy="0" r="0.06" fill="#888" stroke="none"/>
<circle class="grid" cx="1" cy="0" r="0.06" fill="#888" stroke="none"/>
<circle class="grid" cx="2" cy="0" r="0.06" fill="#888" stroke="none"/>
<circle class="grid" cx="3" cy="0" r="0.06" fill="#888" stroke="none"/>
<circle class="grid" cx="-11" cy="1" r="0.06" fill="#888" stroke="none"/>
<circle class="grid" cx="-10" cy="1" r="0.06" fill="#888" stroke="none"/>
<circle class="grid" cx="-9" cy="1" r="0.06" fill="#888" stroke="none"/>
<circle class="grid" cx="-8" cy="1" r="0.06" fill="#888" stroke="none"/>
<circle class="grid" cx="-7" cy="1" r="0.06" fill="#888" stroke="none"/>
<circle class="grid" cx="-6" cy="1" r="0.06" fill="#888" stroke="none"/>
<circle class="grid" cx="-5" cy="1" r="0.06" fill="#888" stroke="none"/>
<circle class="grid" cx="-4" cy="1" r="0.06" fill="#888" stroke="none"/>
<circle class="grid" cx="-3" cy="1" r="0.06" fill="#888" stroke="none"/>
<circle class="grid" cx="-2" cy="1" r="0.06" fill="#888" stroke="none"/>
<circle class="grid" cx="-1" cy="1" r="0.06" fill="#888" stroke="none"/>
<circle class="grid" cx="0" cy="1" r="0.06" fill="#888" stroke="none"/>
<circle class="grid" cx="1" cy="1" r="0.06" fill="#888" stroke="none"/>
<circle class="grid" cx="2" cy="1" r="0.06" fill="#888" stroke="none"/>
<circle class="grid" cx="3" cy="1" r="0.06" fill="#888" stroke="none"/>
<circle class="grid" cx="-11" cy="2" r="0.06" fill="#888" stroke="none"/>
<circle class="grid" cx="-10" cy="2" r="0.06" fill="#888" stroke="none"/>
<circle class="grid" cx="-9" cy="2" r="0.06" fill="#888" stroke="none"/>
<circle class="grid" cx="-8" cy="2" r="0.06" fill="#888" stroke="none"/>
<circle class="grid" cx="-7" cy="2" r="0.06" fill="#888" stroke="none"/>
<circle class="grid" cx="-6" cy="2" r="0.06" fill="#888" stroke="none"/>
<circle class="grid" cx="-5" cy="2" r="0.06" fill="#888" stroke="none"/>
<circle class="grid" cx="-4" cy="2" r="0.06" fill="#888" stroke="none"/>
<circle class="grid" cx="-3" cy="2" r="0.06" fill="#888" stroke="none"/>
<circle class="grid" cx="-2" cy="2" r="0.06" fill="#888" stroke="none"/>
<circle class="grid" cx="-1" cy="2" r="0.06" fill="#888" stroke="none"/>
<circle class="grid" cx="0" cy="2" r="0.06" fill="#888" stroke="none"/>
<circle class="grid" cx="1" cy="2" r="0.06" fill="#888" stroke="none"/>
<circle class="grid" cx="2" cy="2" r="0.06" fill="#888" stroke="none"/>
<circle class="grid" cx="3" cy="2" r="0.06" fill="#888" stroke="none"/>
<circle class="grid" cx="-11" cy="3" r="0.06" fill="#888" stroke="none"/>
<circle class="grid" cx="-10" cy="3" r="0.06" fill="#888" stroke="none"/>
<circle class="grid" cx="-9" cy="3" r="0.06" fill="#888" stroke="none"/>
<circle class="grid" cx="-8" cy="3" r="0.06" fill="#888" stroke="none"/>
<circle class="grid" cx="-7" cy="3" r="0.06" fill="#888" stroke="none"/>
<circle class="grid" cx="-6" cy="3" r="0.06" fill="#888" stroke="none"/>
<circle class="grid" cx="-5" cy="3" r="0.06" fill="#888" stroke="none"/>
<circle class="grid" cx="-4" cy="3" r="0.06" fill="#888" stroke="none"/>
<circle class="grid" cx="-3" cy="3" r="0.06" fill="#888" stroke="none"/>
<circle class="grid" cx="-2" cy="3" r="0.06" fill="#888" stroke="none"/>
<circle class="grid" cx="-1" cy="3" r="0.06" fill="#888" stroke="none"/>
<circle class="grid" cx="0" cy="3" r="0.06" fill="#888" stroke="none"/>
<circle class="grid" cx="1" cy="3" r="0.06" fill="#888" stroke="none"/>
<circle class="grid" cx="2" cy="3" r="0.06" fill="#888" stroke="none"/>
<circle class="grid" cx="3" cy="3" r="0.06" fill="#888" stroke="none"/>
<circle class="grid" cx="-11" cy="4" r="0.06" fill="#888" stroke="none"/>
<circle class="grid" cx="-10" cy="4" r="0.06" fill="#888" stroke="none"/>
<circle class="grid" cx="-9" cy="4" r="0.06" fill="#888" stroke="none"/>
<circle class="grid" cx="-8" cy="4" r="0.06" fill="#888" stroke="none"/>
<circle class="grid" cx="-7" cy="4" r="0.06" fill="#888" stroke="none"/>
<circle class="grid" cx="-6" cy="4" r="0.06" fill="#888" stroke="none"/>
<circle class="grid" cx="-5" cy="4" r="0.06" fill="#888" stroke="none"/>
<circle class="grid" cx="-4" cy="4" r="0.06" fill="#888" stroke="none"/>
<circle class="grid" cx="-3" cy="4" r="0.06" fill="#888" stroke="none"/>
<circle class="grid" cx="-2" cy="4" r="0.06" fill="#888" stroke="none"/>
<circle class="grid" cx="-1" cy="4" r="0.06" fill="#888" stroke="none"/>
<circle class="grid" cx="0" cy="4" r="0.06" fill="#888" stroke="none"/>
<circle class="grid" cx="1" cy="4" r="0.06" fill="#888" stroke="none"/>
<circle class="grid" cx="2" cy="4" r="0.06" fill="#888" stroke="none"/>
<circle class="grid" cx="3" cy="4" r="0.06" fill="#888" stroke="none"/>
<rect class="body-box" x="-2" y="-2" width="2" height="4" fill="none" stroke="#0a0" stroke-width="0.05" stroke-dasharray="0.2 0.2"/>
<rect class="keepout-box" x="-10" y="-2" width="11.75" height="4" fill="none" stroke="#a0a" stroke-width="0.05" stroke-dasharray="0.2 0.2" stroke-dashoffset="0.2"/>
<rect class="slot-box" x="0.25" y="-2" width="1.5" height="1" fill="#06c" fill-opacity="0.12" stroke="#06c" stroke-width="0.03"/>
<text class="slot-id" x="0.25" y="-2.1" font-size="0.3" text-anchor="start" fill="#06c" stroke="none" font-family="sans-serif">marking.com</text>
<rect class="slot-box" x="-3.75" y="1" width="1.5" height="1" fill="#06c" fill-opacity="0.12" stroke="#06c" stroke-width="0.03"/>
<text class="slot-id" x="-3.75" y="0.9" font-size="0.3" text-anchor="start" fill="#06c" stroke="none" font-family="sans-serif">marking.nc</text>
<rect class="slot-box" x="0.25" y="1" width="1.5" height="1" fill="#06c" fill-opacity="0.12" stroke="#06c" stroke-width="0.03"/>
<text class="slot-id" x="0.25" y="0.9" font-size="0.3" text-anchor="start" fill="#06c" stroke="none" font-family="sans-serif">marking.no</text>
<rect class="slot-box" x="-10" y="-0.5" width="6" height="1" fill="#06c" fill-opacity="0.12" stroke="#06c" stroke-width="0.03"/>
<text class="slot-id" x="-10" y="-0.6" font-size="0.3" text-anchor="start" fill="#06c" stroke="none" font-family="sans-serif">tag</text>
<path class="anchor" d="M -0.7 0 L -0.5 -0.2 L -0.3 0 L -0.5 0.2 Z" fill="#088" stroke="none"/>
<text class="anchor-id" x="-1.25" y="0.144" font-size="0.4" text-anchor="middle" fill="#088" stroke="none" font-family="sans-serif">link</text>
<rect class="lane" x="-0.25" y="-4.3" width="0.5" height="2.3" fill="#d00" fill-opacity="0.15" stroke="none"/>
<rect class="lane" x="-0.25" y="2" width="0.5" height="2.3" fill="#d00" fill-opacity="0.15" stroke="none"/>
<rect class="lane" x="-2.25" y="2" width="0.5" height="2.3" fill="#d00" fill-opacity="0.15" stroke="none"/>
<circle class="port" cx="0" cy="-2" r="0.2" fill="#d00" stroke="none"/>
<text class="port-id" x="0" y="-2.784" font-size="0.6" text-anchor="middle" fill="#d00" stroke="none" font-family="sans-serif">com</text>
<circle class="port" cx="0" cy="2" r="0.2" fill="#d00" stroke="none"/>
<text class="port-id" x="0" y="3.216" font-size="0.6" text-anchor="middle" fill="#d00" stroke="none" font-family="sans-serif">no</text>
<circle class="port" cx="-2" cy="2" r="0.2" fill="#d00" stroke="none"/>
<text class="port-id" x="-2" y="3.216" font-size="0.6" text-anchor="middle" fill="#d00" stroke="none" font-family="sans-serif">nc</text>
</g>
<g class="samples">
<text class="sample-text" x="0.25" y="-1.14" font-size="1" text-anchor="start" fill="#c60" stroke="none" font-family="sans-serif">1</text>
<text class="sample-text" x="-2.25" y="1.86" font-size="1" text-anchor="end" fill="#c60" stroke="none" font-family="sans-serif">3</text>
<text class="sample-text" x="0.25" y="1.86" font-size="1" text-anchor="start" fill="#c60" stroke="none" font-family="sans-serif">2</text>
<text class="sample-text" x="-4" y="0.36" font-size="1" text-anchor="end" fill="#c60" stroke="none" font-family="sans-serif">-X1</text>
</g>
</svg>
