<svg xmlns="http://www.w3.org/2000/svg" width="28.075mm" height="26.5mm" viewBox="-8 -5.3 11.23 10.6">
<title>Fuse</title>
<g fill="none" stroke="#000" stroke-linecap="butt" stroke-linejoin="miter">
<line x1="0" y1="-3" x2="0" y2="3" stroke-width="0.1"/>
<polygon points="-0.5,-1.5 0.5,-1.5 0.5,1.5 -0.5,1.5" stroke-width="0.1"/>
<polygon points="-0.5,-1.5 0.5,-1.5 0.5,-1 -0.5,-1" stroke-width="0.1" fill="#000"/>
</g>
<g class="annotation">
<circle class="grid" cx="-8" cy="-5" r="0.06" fill="#888" stroke="none"/>
<circle class="grid" cx="-7" cy="-5" r="0.06" fill="#888" stroke="none"/>
<circle class="grid" cx="-6" cy="-5" r="0.06" fill="#888" stroke="none"/>
<circle class="grid" cx="-5" cy="-5" r="0.06" fill="#888" stroke="none"/>
<circle class="grid" cx="-4" cy="-5" r="0.06" fill="#888" stroke="none"/>
<circle class="grid" cx="-3" cy="-5" r="0.06" fill="#888" stroke="none"/>
<circle class="grid" cx="-2" cy="-5" r="0.06" fill="#888" stroke="none"/>
<circle class="grid" cx="-1" cy="-5" r="0.06" fill="#888" stroke="none"/>
<circle class="grid" cx="0" cy="-5" r="0.06" fill="#888" stroke="none"/>
<circle class="grid" cx="1" cy="-5" r="0.06" fill="#888" stroke="none"/>
<circle class="grid" cx="2" cy="-5" r="0.06" fill="#888" stroke="none"/>
<circle class="grid" cx="3" cy="-5" r="0.06" fill="#888" stroke="none"/>
<circle class="grid" cx="-8" cy="-4" r="0.06" fill="#888" stroke="none"/>
<circle class="grid" cx="-7" cy="-4" r="0.06" fill="#888" stroke="none"/>
<circle class="grid" cx="-6" cy="-4" r="0.06" fill="#888" stroke="none"/>
<circle class="grid" cx="-5" cy="-4" r="0.06" fill="#888" stroke="none"/>
<circle class="grid" cx="-4" cy="-4" r="0.06" fill="#888" stroke="none"/>
<circle class="grid" cx="-3" cy="-4" r="0.06" fill="#888" stroke="none"/>
<circle class="grid" cx="-2" cy="-4" r="0.06" fill="#888" stroke="none"/>
<circle class="grid" cx="-1" cy="-4" r="0.06" fill="#888" stroke="none"/>
<circle class="grid" cx="0" cy="-4" r="0.06" fill="#888" stroke="none"/>
<circle class="grid" cx="1" cy="-4" r="0.06" fill="#888" stroke="none"/>
<circle class="grid" cx="2" cy="-4" r="0.06" fill="#888" stroke="none"/>
<circle class="grid" cx="3" cy="-4" r="0.06" fill="#888" stroke="none"/>
<circle class="grid" cx="-8" cy="-3" r="0.06" fill="#888" stroke="none"/>
<circle class="grid" cx="-7" cy="-3" r="0.06" fill="#888" stroke="none"/>
<circle class="grid" cx="-6" cy="-3" r="0.06" fill="#888" stroke="none"/>
<circle class="grid" cx="-5" cy="-3" r="0.06" fill="#888" stroke="none"/>
<circle class="grid" cx="-4" cy="-3" r="0.06" fill="#888" stroke="none"/>
<circle class="grid" cx="-3" cy="-3" r="0.06" fill="#888" stroke="none"/>
<circle class="grid" cx="-2" cy="-3" r="0.06" fill="#888" stroke="none"/>
<circle class="grid" cx="-1" cy="-3" r="0.06" fill="#888" stroke="none"/>
<circle class="grid" cx="0" cy="-3" r="0.06" fill="#888" stroke="none"/>
<circle class="grid" cx="1" cy="-3" r="0.06" fill="#888" stroke="none"/>
<circle class="grid" cx="2" cy="-3" r="0.06" fill="#888" stroke="none"/>
<circle class="grid" cx="3" cy="-3" r="0.06" fill="#888" stroke="none"/>
<circle class="grid" cx="-8" cy="-2" r="0.06" fill="#888" stroke="none"/>
<circle class="grid" cx="-7" cy="-2" r="0.06" fill="#888" stroke="none"/>
<circle class="grid" cx="-6" cy="-2" r="0.06" fill="#888" stroke="none"/>
<circle class="grid" cx="-5" cy="-2" r="0.06" fill="#888" stroke="none"/>
<circle class="grid" cx="-4" cy="-2" r="0.06" fill="#888" stroke="none"/>
<circle class="grid" cx="-3" cy="-2" r="0.06" fill="#888" stroke="none"/>
<circle class="grid" cx="-2" cy="-2" r="0.06" fill="#888" stroke="none"/>
<circle class="grid" cx="-1" cy="-2" r="0.06" fill="#888" stroke="none"/>
<circle class="grid" cx="0" cy="-2" r="0.06" fill="#888" stroke="none"/>
<circle class="grid" cx="1" cy="-2" r="0.06" fill="#888" stroke="none"/>
<circle class="grid" cx="2" cy="-2" r="0.06" fill="#888" stroke="none"/>
<circle class="grid" cx="3" cy="-2" r="0.06" fill="#888" stroke="none"/>
<circle class="grid" cx="-8" cy="-1" r="0.06" fill="#888" stroke="none"/>
<circle class="grid" cx="-7" cy="-1" r="0.06" fill="#888" stroke="none"/>
<circle class="grid" cx="-6" cy="-1" r="0.06" fill="#888" stroke="none"/>
<circle class="grid" cx="-5" cy="-1" r="0.06" fill="#888" stroke="none"/>
<circle class="grid" cx="-4" cy="-1" r="0.06" fill="#888" stroke="none"/>
<circle class="grid" cx="-3" cy="-1" r="0.06" fill="#888" stroke="none"/>
<circle class="grid" cx="-2" cy="-1" r="0.06" fill="#888" stroke="none"/>
<circle class="grid" cx="-1" cy="-1" r="0.06" fill="#888" stroke="none"/>
<circle class="grid" cx="0" cy="-1" r="0.06" fill="#888" stroke="none"/>
<circle class="grid" cx="1" cy="-1" r="0.06" fill="#888" stroke="none"/>
<circle class="grid" cx="2" cy="-1" r="0.06" fill="#888" stroke="none"/>
<circle class="grid" cx="3" cy="-1" r="0.06" fill="#888" stroke="none"/>
<circle class="grid" cx="-8" cy="0" r="0.06" fill="#888" stroke="none"/>
<circle class="grid" cx="-7" cy="0" r="0.06" fill="#888" stroke="none"/>
<circle class="grid" cx="-6" cy="0" r="0.06" fill="#888" stroke="none"/>
<circle class="grid" cx="-5" cy="0" r="0.06" fill="#888" stroke="none"/>
<circle class="grid" cx="-4" cy="0" r="0.06" fill="#888" stroke="none"/>
<circle class="grid" cx="-3" cy="0" r="0.06" fill="#888" stroke="none"/>
<circle class="grid" cx="-2" cy="0" r="0.06" fill="#888" stroke="none"/>
<circle class="grid" cx="-1" cy="0" r="0.06" fill="#888" stroke="none"/>
<circle class="grid" cx="0" cy="0" r="0.06" fill="#888" stroke="none"/>
<circle class="grid" cx="1" cy="0" r="0.06" fill="#888" stroke="none"/>
<circle class="grid" cx="2" cy="0" r="0.06" fill="#888" stroke="none"/>
<circle class="grid" cx="3" cy="0" r="0.06" fill="#888" stroke="none"/>
<circle class="grid" cx="-8" cy="1" r="0.06" fill="#888" stroke="none"/>
<circle class="grid" cx="-7" cy="1" r="0.06" fill="#888" stroke="none"/>
<circle class="grid" cx="-6" cy="1" r="0.06" fill="#888" stroke="none"/>
<circle class="grid" cx="-5" cy="1" r="0.06" fill="#888" stroke="none"/>
<circle class="grid" cx="-4" cy="1" r="0.06" fill="#888" stroke="none"/>
<circle class="grid" cx="-3" cy="1" r="0.06" fill="#888" stroke="none"/>
<circle class="grid" cx="-2" cy="1" r="0.06" fill="#888" stroke="none"/>
<circle class="grid" cx="-1" cy="1" r="0.06" fill="#888" stroke="none"/>
<circle class="grid" cx="0" cy="1" r="0.06" fill="#888" stroke="none"/>
<circle class="grid" cx="1" cy="1" r="0.06" fill="#888" stroke="none"/>
<circle class="grid" cx="2" cy="1" r="0.06" fill="#888" stroke="none"/>
<circle class="grid" cx="3" cy="1" r="0.06" fill="#888" stroke="none"/>
<circle class="grid" cx="-8" cy="2" r="0.06" fill="#888" stroke="none"/>
<circle class="grid" cx="-7" cy="2" r="0.06" fill="#888" stroke="none"/>
<circle class="grid" cx="-6" cy="2" r="0.06" fill="#888" stroke="none"/>
<circle class="grid" cx="-5" cy="2" r="0.06" fill="#888" stroke="none"/>
<circle class="grid" cx="-4" cy="2" r="0.06" fill="#888" stroke="none"/>
<circle class="grid" cx="-3" cy="2" r="0.06" fill="#888" stroke="none"/>
<circle class="grid" cx="-2" cy="2" r="0.06" fill="#888" stroke="none"/>
<circle class="grid" cx="-1" cy="2" r="0.06" fill="#888" stroke="none"/>
<circle class="grid" cx="0" cy="2" r="0.06" fill="#888" stroke="none"/>
<circle class="grid" cx="1" cy="2" r="0.06" fill="#888" stroke="none"/>
<circle class="grid" cx="2" cy="2" r="0.06" fill="#888" stroke="none"/>
<circle class="grid" cx="3" cy="2" r="0.06" fill="#888" stroke="none"/>
<circle class="grid" cx="-8" cy="3" r="0.06" fill="#888" stroke="none"/>
<circle class="grid" cx="-7" cy="3" r="0.06" fill="#888" stroke="none"/>
<circle class="grid" cx="-6" cy="3" r="0.06" fill="#888" stroke="none"/>
<circle class="grid" cx="-5" cy="3" r="0.06" fill="#888" stroke="none"/>
<circle class="grid" cx="-4" cy="3" r="0.06" fill="#888" stroke="none"/>
<circle class="grid" cx="-3" cy="3" r="0.06" fill="#888" stroke="none"/>
<circle class="grid" cx="-2" cy="3" r="0.06" fill="#888" stroke="none"/>
<circle class="grid" cx="-1" cy="3" r="0.06" fill="#888" stroke="none"/>
<circle class="grid" cx="0" cy="3" r="0.06" fill="#888" stroke="none"/>
<circle class="grid" cx="1" cy="3" r="0.06" fill="#888" stroke="none"/>
<circle class="grid" cx="2" cy="3" r="0.06" fill="#888" stroke="none"/>
<circle class="grid" cx="3" cy="3" r="0.06" fill="#888" stroke="none"/>
<circle class="grid" cx="-8" cy="4" r="0.06" fill="#888" stroke="none"/>
<circle class="grid" cx="-7" cy="4" r="0.06" fill="#888" stroke="none"/>
<circle class="grid" cx="-6" cy="4" r="0.06" fill="#888" stroke="none"/>
<circle class="grid" cx="-5" cy="4" r="0.06" fill="#888" stroke="none"/>
<circle class="grid" cx="-4" cy="4" r="0.06" fill="#888" stroke="none"/>
<circle class="grid" cx="-3" cy="4" r="0.06" fill="#888" stroke="none"/>
<circle class="grid" cx="-2" cy="4" r="0.06" fill="#888" stroke="none"/>
<circle class="grid" cx="-1" cy="4" r="0.06" fill="#888" stroke="none"/>
<circle class="grid" cx="0" cy="4" r="0.06" fill="#888" stroke="none"/>
<circle class="grid" cx="1" cy="4" r="0.06" fill="#888" stroke="none"/>
<circle class="grid" cx="2" cy="4" r="0.06" fill="#888" stroke="none"/>
<circle class="grid" cx="3" cy="4" r="0.06" fill="#888" stroke="none"/>
<circle class="grid" cx="-8" cy="5" r="0.06" fill="#888" stroke="none"/>
<circle class="grid" cx="-7" cy="5" r="0.06" fill="#888" stroke="none"/>
<circle class="grid" cx="-6" cy="5" r="0.06" fill="#888" stroke="none"/>
<circle class="grid" cx="-5" cy="5" r="0.06" fill="#888" stroke="none"/>
<circle class="grid" cx="-4" cy="5" r="0.06" fill="#888" stroke="none"/>
<circle class="grid" cx="-3" cy="5" r="0.06" fill="#888" stroke="none"/>
<circle class="grid" cx="-2" cy="5" r="0.06" fill="#888" stroke="none"/>
<circle class="grid" cx="-1" cy="5" r="0.06" fill="#888" stroke="none"/>
<circle class="grid" cx="0" cy="5" r="0.06" fill="#888" stroke="none"/>
<circle class="grid" cx="1" cy="5" r="0.06" fill="#888" stroke="none"/>
<circle class="grid" cx="2" cy="5" r="0.06" fill="#888" stroke="none"/>
<circle class="grid" cx="3" cy="5" r="0.06" fill="#888" stroke="none"/>
<rect class="body-box" x="-0.5" y="-3" width="1" height="6" fill="none" stroke="#0a0" stroke-width="0.05" stroke-dasharray="0.2 0.2"/>
<rect class="keepout-box" x="-7" y="-3" width="8.75" height="6" fill="none" stroke="#a0a" stroke-width="0.05" stroke-dasharray="0.2 0.2" stroke-dashoffset="0.2"/>
<rect class="slot-box" x="0.25" y="-2.75" width="1.5" height="1" fill="#06c" fill-opacity="0.12" stroke="#06c" stroke-width="0.03"/>
<text class="slot-id" x="0.25" y="-2.85" font-size="0.3" text-anchor="start" fill="#06c" stroke="none" font-family="sans-serif">marking.in</text>
<rect class="slot-box" x="0.25" y="1.75" width="1.5" height="1" fill="#06c" fill-opacity="0.12" stroke="#06c" stroke-width="0.03"/>
<text class="slot-id" x="0.25" y="1.65" font-size="0.3" text-anchor="start" fill="#06c" stroke="none" font-family="sans-serif">marking.out</text>
<rect class="slot-box" x="-7" y="-0.5" width="6" height="1" fill="#06c" fill-opacity="0.12" stroke="#06c" stroke-width="0.03"/>
<text class="slot-id" x="-7" y="-0.6" font-size="0.3" text-anchor="start" fill="#06c" stroke="none" font-family="sans-serif">tag</text>
<rect class="lane" x="-0.25" y="-5.3" width="0.5" height="2.3" fill="#d00" fill-opacity="0.15" stroke="none"/>
<rect class="lane" x="-0.25" y="3" width="0.5" height="2.3" fill="#d00" fill-opacity="0.15" stroke="none"/>
<circle class="port" cx="0" cy="-3" r="0.2" fill="#d00" stroke="none"/>
<text class="port-id" x="0" y="-3.784" font-size="0.6" text-anchor="middle" fill="#d00" stroke="none" font-family="sans-serif">in</text>
<circle class="port" cx="0" cy="3" r="0.2" fill="#d00" stroke="none"/>
<text class="port-id" x="0" y="4.216" font-size="0.6" text-anchor="middle" fill="#d00" stroke="none" font-family="sans-serif">out</text>
</g>
<g class="samples">
<text class="sample-text" x="0.25" y="-1.89" font-size="1" text-anchor="start" fill="#c60" stroke="none" font-family="sans-serif">1</text>
<text class="sample-text" x="0.25" y="2.61" font-size="1" text-anchor="start" fill="#c60" stroke="none" font-family="sans-serif">2</text>
<text class="sample-text" x="-1" y="0.36" font-size="1" text-anchor="end" fill="#c60" stroke="none" font-family="sans-serif">-X1</text>
</g>
</svg>
