<svg xmlns="http://www.w3.org/2000/svg" width="39.325mm" height="26.5mm" viewBox="-10.5 -5.3 15.73 10.6">
<title>Power supply unit (a.c./d.c. in, d.c. out)</title>
<g fill="none" stroke="#000" stroke-linecap="butt" stroke-linejoin="miter">
<line x1="-2" y1="-3" x2="-2" y2="-2" stroke-width="0.1"/>
<line x1="0" y1="-3" x2="0" y2="-2" stroke-width="0.1"/>
<line x1="-2" y1="3" x2="-2" y2="2" stroke-width="0.1"/>
<line x1="0" y1="3" x2="0" y2="2" stroke-width="0.1"/>
<line x1="2" y1="3" x2="2" y2="2" stroke-width="0.1"/>
<polygon points="-3,-2 3,-2 3,2 -3,2" stroke-width="0.1"/>
<line x1="-3" y1="2" x2="3" y2="-2" stroke-width="0.1"/>
<path d="M -2.125 -1.125 A 0.375 0.375 0 0 1 -1.375 -1.125" stroke-width="0.1"/>
<path d="M -0.625 -1.125 A 0.375 0.375 0 0 1 -1.375 -1.125" stroke-width="0.1"/>
<line x1="1" y1="1" x2="2.5" y2="1" stroke-width="0.1"/>
<line x1="1" y1="1.5" x2="2.5" y2="1.5" stroke-width="0.1" stroke-dasharray="0.5 0.25"/>
</g>
<g class="annotation">
<circle class="grid" cx="-10" cy="-5" r="0.06" fill="#888" stroke="none"/>
<circle class="grid" cx="-9" cy="-5" r="0.06" fill="#888" stroke="none"/>
<circle class="grid" cx="-8" cy="-5" r="0.06" fill="#888" stroke="none"/>
<circle class="grid" cx="-7" cy="-5" r="0.06" fill="#888" stroke="none"/>
<circle class="grid" cx="-6" cy="-5" r="0.06" fill="#888" stroke="none"/>
<circle class="grid" cx="-5" cy="-5" r="0.06" fill="#888" stroke="none"/>
<circle class="grid" cx="-4" cy="-5" r="0.06" fill="#888" stroke="none"/>
<circle class="grid" cx="-3" cy="-5" r="0.06" fill="#888" stroke="none"/>
<circle class="grid" cx="-2" cy="-5" r="0.06" fill="#888" stroke="none"/>
<circle class="grid" cx="-1" cy="-5" r="0.06" fill="#888" stroke="none"/>
<circle class="grid" cx="0" cy="-5" r="0.06" fill="#888" stroke="none"/>
<circle class="grid" cx="1" cy="-5" r="0.06" fill="#888" stroke="none"/>
<circle class="grid" cx="2" cy="-5" r="0.06" fill="#888" stroke="none"/>
<circle class="grid" cx="3" cy="-5" r="0.06" fill="#888" stroke="none"/>
<circle class="grid" cx="4" cy="-5" r="0.06" fill="#888" stroke="none"/>
<circle class="grid" cx="5" cy="-5" r="0.06" fill="#888" stroke="none"/>
<circle class="grid" cx="-10" cy="-4" r="0.06" fill="#888" stroke="none"/>
<circle class="grid" cx="-9" cy="-4" r="0.06" fill="#888" stroke="none"/>
<circle class="grid" cx="-8" cy="-4" r="0.06" fill="#888" stroke="none"/>
<circle class="grid" cx="-7" cy="-4" r="0.06" fill="#888" stroke="none"/>
<circle class="grid" cx="-6" cy="-4" r="0.06" fill="#888" stroke="none"/>
<circle class="grid" cx="-5" cy="-4" r="0.06" fill="#888" stroke="none"/>
<circle class="grid" cx="-4" cy="-4" r="0.06" fill="#888" stroke="none"/>
<circle class="grid" cx="-3" cy="-4" r="0.06" fill="#888" stroke="none"/>
<circle class="grid" cx="-2" cy="-4" r="0.06" fill="#888" stroke="none"/>
<circle class="grid" cx="-1" cy="-4" r="0.06" fill="#888" stroke="none"/>
<circle class="grid" cx="0" cy="-4" r="0.06" fill="#888" stroke="none"/>
<circle class="grid" cx="1" cy="-4" r="0.06" fill="#888" stroke="none"/>
<circle class="grid" cx="2" cy="-4" r="0.06" fill="#888" stroke="none"/>
<circle class="grid" cx="3" cy="-4" r="0.06" fill="#888" stroke="none"/>
<circle class="grid" cx="4" cy="-4" r="0.06" fill="#888" stroke="none"/>
<circle class="grid" cx="5" cy="-4" r="0.06" fill="#888" stroke="none"/>
<circle class="grid" cx="-10" cy="-3" r="0.06" fill="#888" stroke="none"/>
<circle class="grid" cx="-9" cy="-3" r="0.06" fill="#888" stroke="none"/>
<circle class="grid" cx="-8" cy="-3" r="0.06" fill="#888" stroke="none"/>
<circle class="grid" cx="-7" cy="-3" r="0.06" fill="#888" stroke="none"/>
<circle class="grid" cx="-6" cy="-3" r="0.06" fill="#888" stroke="none"/>
<circle class="grid" cx="-5" cy="-3" r="0.06" fill="#888" stroke="none"/>
<circle class="grid" cx="-4" cy="-3" r="0.06" fill="#888" stroke="none"/>
<circle class="grid" cx="-3" cy="-3" r="0.06" fill="#888" stroke="none"/>
<circle class="grid" cx="-2" cy="-3" r="0.06" fill="#888" stroke="none"/>
<circle class="grid" cx="-1" cy="-3" r="0.06" fill="#888" stroke="none"/>
<circle class="grid" cx="0" cy="-3" r="0.06" fill="#888" stroke="none"/>
<circle class="grid" cx="1" cy="-3" r="0.06" fill="#888" stroke="none"/>
<circle class="grid" cx="2" cy="-3" r="0.06" fill="#888" stroke="none"/>
<circle class="grid" cx="3" cy="-3" r="0.06" fill="#888" stroke="none"/>
<circle class="grid" cx="4" cy="-3" r="0.06" fill="#888" stroke="none"/>
<circle class="grid" cx="5" cy="-3" r="0.06" fill="#888" stroke="none"/>
<circle class="grid" cx="-10" cy="-2" r="0.06" fill="#888" stroke="none"/>
<circle class="grid" cx="-9" cy="-2" r="0.06" fill="#888" stroke="none"/>
<circle class="grid" cx="-8" cy="-2" r="0.06" fill="#888" stroke="none"/>
<circle class="grid" cx="-7" cy="-2" r="0.06" fill="#888" stroke="none"/>
<circle class="grid" cx="-6" cy="-2" r="0.06" fill="#888" stroke="none"/>
<circle class="grid" cx="-5" cy="-2" r="0.06" fill="#888" stroke="none"/>
<circle class="grid" cx="-4" cy="-2" r="0.06" fill="#888" stroke="none"/>
<circle class="grid" cx="-3" cy="-2" r="0.06" fill="#888" stroke="none"/>
<circle class="grid" cx="-2" cy="-2" r="0.06" fill="#888" stroke="none"/>
<circle class="grid" cx="-1" cy="-2" r="0.06" fill="#888" stroke="none"/>
<circle class="grid" cx="0" cy="-2" r="0.06" fill="#888" stroke="none"/>
<circle class="grid" cx="1" cy="-2" r="0.06" fill="#888" stroke="none"/>
<circle class="grid" cx="2" cy="-2" r="0.06" fill="#888" stroke="none"/>
<circle class="grid" cx="3" cy="-2" r="0.06" fill="#888" stroke="none"/>
<circle class="grid" cx="4" cy="-2" r="0.06" fill="#888" stroke="none"/>
<circle class="grid" cx="5" cy="-2" r="0.06" fill="#888" stroke="none"/>
<circle class="grid" cx="-10" cy="-1" r="0.06" fill="#888" stroke="none"/>
<circle class="grid" cx="-9" cy="-1" r="0.06" fill="#888" stroke="none"/>
<circle class="grid" cx="-8" cy="-1" r="0.06" fill="#888" stroke="none"/>
<circle class="grid" cx="-7" cy="-1" r="0.06" fill="#888" stroke="none"/>
<circle class="grid" cx="-6" cy="-1" r="0.06" fill="#888" stroke="none"/>
<circle class="grid" cx="-5" cy="-1" r="0.06" fill="#888" stroke="none"/>
<circle class="grid" cx="-4" cy="-1" r="0.06" fill="#888" stroke="none"/>
<circle class="grid" cx="-3" cy="-1" r="0.06" fill="#888" stroke="none"/>
<circle class="grid" cx="-2" cy="-1" r="0.06" fill="#888" stroke="none"/>
<circle class="grid" cx="-1" cy="-1" r="0.06" fill="#888" stroke="none"/>
<circle class="grid" cx="0" cy="-1" r="0.06" fill="#888" stroke="none"/>
<circle class="grid" cx="1" cy="-1" r="0.06" fill="#888" stroke="none"/>
<circle class="grid" cx="2" cy="-1" r="0.06" fill="#888" stroke="none"/>
<circle class="grid" cx="3" cy="-1" r="0.06" fill="#888" stroke="none"/>
<circle class="grid" cx="4" cy="-1" r="0.06" fill="#888" stroke="none"/>
<circle class="grid" cx="5" cy="-1" r="0.06" fill="#888" stroke="none"/>
<circle class="grid" cx="-10" cy="0" r="0.06" fill="#888" stroke="none"/>
<circle class="grid" cx="-9" cy="0" r="0.06" fill="#888" stroke="none"/>
<circle class="grid" cx="-8" cy="0" r="0.06" fill="#888" stroke="none"/>
<circle class="grid" cx="-7" cy="0" r="0.06" fill="#888" stroke="none"/>
<circle class="grid" cx="-6" cy="0" r="0.06" fill="#888" stroke="none"/>
<circle class="grid" cx="-5" cy="0" r="0.06" fill="#888" stroke="none"/>
<circle class="grid" cx="-4" cy="0" r="0.06" fill="#888" stroke="none"/>
<circle class="grid" cx="-3" cy="0" r="0.06" fill="#888" stroke="none"/>
<circle class="grid" cx="-2" cy="0" r="0.06" fill="#888" stroke="none"/>
<circle class="grid" cx="-1" cy="0" r="0.06" fill="#888" stroke="none"/>
<circle class="grid" cx="0" cy="0" r="0.06" fill="#888" stroke="none"/>
<circle class="grid" cx="1" cy="0" r="0.06" fill="#888" stroke="none"/>
<circle class="grid" cx="2" cy="0" r="0.06" fill="#888" stroke="none"/>
<circle class="grid" cx="3" cy="0" r="0.06" fill="#888" stroke="none"/>
<circle class="grid" cx="4" cy="0" r="0.06" fill="#888" stroke="none"/>
<circle class="grid" cx="5" cy="0" r="0.06" fill="#888" stroke="none"/>
<circle class="grid" cx="-10" cy="1" r="0.06" fill="#888" stroke="none"/>
<circle class="grid" cx="-9" cy="1" r="0.06" fill="#888" stroke="none"/>
<circle class="grid" cx="-8" cy="1" r="0.06" fill="#888" stroke="none"/>
<circle class="grid" cx="-7" cy="1" r="0.06" fill="#888" stroke="none"/>
<circle class="grid" cx="-6" cy="1" r="0.06" fill="#888" stroke="none"/>
<circle class="grid" cx="-5" cy="1" r="0.06" fill="#888" stroke="none"/>
<circle class="grid" cx="-4" cy="1" r="0.06" fill="#888" stroke="none"/>
<circle class="grid" cx="-3" cy="1" r="0.06" fill="#888" stroke="none"/>
<circle class="grid" cx="-2" cy="1" r="0.06" fill="#888" stroke="none"/>
<circle class="grid" cx="-1" cy="1" r="0.06" fill="#888" stroke="none"/>
<circle class="grid" cx="0" cy="1" r="0.06" fill="#888" stroke="none"/>
<circle class="grid" cx="1" cy="1" r="0.06" fill="#888" stroke="none"/>
<circle class="grid" cx="2" cy="1" r="0.06" fill="#888" stroke="none"/>
<circle class="grid" cx="3" cy="1" r="0.06" fill="#888" stroke="none"/>
<circle class="grid" cx="4" cy="1" r="0.06" fill="#888" stroke="none"/>
<circle class="grid" cx="5" cy="1" r="0.06" fill="#888" stroke="none"/>
<circle class="grid" cx="-10" cy="2" r="0.06" fill="#888" stroke="none"/>
<circle class="grid" cx="-9" cy="2" r="0.06" fill="#888" stroke="none"/>
<circle class="grid" cx="-8" cy="2" r="0.06" fill="#888" stroke="none"/>
<circle class="grid" cx="-7" cy="2" r="0.06" fill="#888" stroke="none"/>
<circle class="grid" cx="-6" cy="2" r="0.06" fill="#888" stroke="none"/>
<circle class="grid" cx="-5" cy="2" r="0.06" fill="#888" stroke="none"/>
<circle class="grid" cx="-4" cy="2" r="0.06" fill="#888" stroke="none"/>
<circle class="grid" cx="-3" cy="2" r="0.06" fill="#888" stroke="none"/>
<circle class="grid" cx="-2" cy="2" r="0.06" fill="#888" stroke="none"/>
<circle class="grid" cx="-1" cy="2" r="0.06" fill="#888" stroke="none"/>
<circle class="grid" cx="0" cy="2" r="0.06" fill="#888" stroke="none"/>
<circle class="grid" cx="1" cy="2" r="0.06" fill="#888" stroke="none"/>
<circle class="grid" cx="2" cy="2" r="0.06" fill="#888" stroke="none"/>
<circle class="grid" cx="3" cy="2" r="0.06" fill="#888" stroke="none"/>
<circle class="grid" cx="4" cy="2" r="0.06" fill="#888" stroke="none"/>
<circle class="grid" cx="5" cy="2" r="0.06" fill="#888" stroke="none"/>
<circle class="grid" cx="-10" cy="3" r="0.06" fill="#888" stroke="none"/>
<circle class="grid" cx="-9" cy="3" r="0.06" fill="#888" stroke="none"/>
<circle class="grid" cx="-8" cy="3" r="0.06" fill="#888" stroke="none"/>
<circle class="grid" cx="-7" cy="3" r="0.06" fill="#888" stroke="none"/>
<circle class="grid" cx="-6" cy="3" r="0.06" fill="#888" stroke="none"/>
<circle class="grid" cx="-5" cy="3" r="0.06" fill="#888" stroke="none"/>
<circle class="grid" cx="-4" cy="3" r="0.06" fill="#888" stroke="none"/>
<circle class="grid" cx="-3" cy="3" r="0.06" fill="#888" stroke="none"/>
<circle class="grid" cx="-2" cy="3" r="0.06" fill="#888" stroke="none"/>
<circle class="grid" cx="-1" cy="3" r="0.06" fill="#888" stroke="none"/>
<circle class="grid" cx="0" cy="3" r="0.06" fill="#888" stroke="none"/>
<circle class="grid" cx="1" cy="3" r="0.06" fill="#888" stroke="none"/>
<circle class="grid" cx="2" cy="3" r="0.06" fill="#888" stroke="none"/>
<circle class="grid" cx="3" cy="3" r="0.06" fill="#888" stroke="none"/>
<circle class="grid" cx="4" cy="3" r="0.06" fill="#888" stroke="none"/>
<circle class="grid" cx="5" cy="3" r="0.06" fill="#888" stroke="none"/>
<circle class="grid" cx="-10" cy="4" r="0.06" fill="#888" stroke="none"/>
<circle class="grid" cx="-9" cy="4" r="0.06" fill="#888" stroke="none"/>
<circle class="grid" cx="-8" cy="4" r="0.06" fill="#888" stroke="none"/>
<circle class="grid" cx="-7" cy="4" r="0.06" fill="#888" stroke="none"/>
<circle class="grid" cx="-6" cy="4" r="0.06" fill="#888" stroke="none"/>
<circle class="grid" cx="-5" cy="4" r="0.06" fill="#888" stroke="none"/>
<circle class="grid" cx="-4" cy="4" r="0.06" fill="#888" stroke="none"/>
<circle class="grid" cx="-3" cy="4" r="0.06" fill="#888" stroke="none"/>
<circle class="grid" cx="-2" cy="4" r="0.06" fill="#888" stroke="none"/>
<circle class="grid" cx="-1" cy="4" r="0.06" fill="#888" stroke="none"/>
<circle class="grid" cx="0" cy="4" r="0.06" fill="#888" stroke="none"/>
<circle class="grid" cx="1" cy="4" r="0.06" fill="#888" stroke="none"/>
<circle class="grid" cx="2" cy="4" r="0.06" fill="#888" stroke="none"/>
<circle class="grid" cx="3" cy="4" r="0.06" fill="#888" stroke="none"/>
<circle class="grid" cx="4" cy="4" r="0.06" fill="#888" stroke="none"/>
<circle class="grid" cx="5" cy="4" r="0.06" fill="#888" stroke="none"/>
<circle class="grid" cx="-10" cy="5" r="0.06" fill="#888" stroke="none"/>
<circle class="grid" cx="-9" cy="5" r="0.06" fill="#888" stroke="none"/>
<circle class="grid" cx="-8" cy="5" r="0.06" fill="#888" stroke="none"/>
<circle class="grid" cx="-7" cy="5" r="0.06" fill="#888" stroke="none"/>
<circle class="grid" cx="-6" cy="5" r="0.06" fill="#888" stroke="none"/>
<circle class="grid" cx="-5" cy="5" r="0.06" fill="#888" stroke="none"/>
<circle class="grid" cx="-4" cy="5" r="0.06" fill="#888" stroke="none"/>
<circle class="grid" cx="-3" cy="5" r="0.06" fill="#888" stroke="none"/>
<circle class="grid" cx="-2" cy="5" r="0.06" fill="#888" stroke="none"/>
<circle class="grid" cx="-1" cy="5" r="0.06" fill="#888" stroke="none"/>
<circle class="grid" cx="0" cy="5" r="0.06" fill="#888" stroke="none"/>
<circle class="grid" cx="1" cy="5" r="0.06" fill="#888" stroke="none"/>
<circle class="grid" cx="2" cy="5" r="0.06" fill="#888" stroke="none"/>
<circle class="grid" cx="3" cy="5" r="0.06" fill="#888" stroke="none"/>
<circle class="grid" cx="4" cy="5" r="0.06" fill="#888" stroke="none"/>
<circle class="grid" cx="5" cy="5" r="0.06" fill="#888" stroke="none"/>
<rect class="body-box" x="-3" y="-3" width="6" height="6" fill="none" stroke="#0a0" stroke-width="0.05" stroke-dasharray="0.2 0.2"/>
<rect class="keepout-box" x="-9.5" y="-3.25" width="13.25" height="6.5" fill="none" stroke="#a0a" stroke-width="0.05" stroke-dasharray="0.2 0.2" stroke-dashoffset="0.2"/>
<rect class="slot-box" x="-1.75" y="-3.25" width="1.5" height="1" fill="#06c" fill-opacity="0.12" stroke="#06c" stroke-width="0.03"/>
<text class="slot-id" x="-1.75" y="-3.35" font-size="0.3" text-anchor="start" fill="#06c" stroke="none" font-family="sans-serif">marking.l</text>
<rect class="slot-box" x="0.25" y="2.25" width="1.5" height="1" fill="#06c" fill-opacity="0.12" stroke="#06c" stroke-width="0.03"/>
<text class="slot-id" x="0.25" y="2.15" font-size="0.3" text-anchor="start" fill="#06c" stroke="none" font-family="sans-serif">marking.minus</text>
<rect class="slot-box" x="0.25" y="-3.25" width="1.5" height="1" fill="#06c" fill-opacity="0.12" stroke="#06c" stroke-width="0.03"/>
<text class="slot-id" x="0.25" y="-3.35" font-size="0.3" text-anchor="start" fill="#06c" stroke="none" font-family="sans-serif">marking.n</text>
<rect class="slot-box" x="-1.75" y="2.25" width="1.5" height="1" fill="#06c" fill-opacity="0.12" stroke="#06c" stroke-width="0.03"/>
<text class="slot-id" x="-1.75" y="2.15" font-size="0.3" text-anchor="start" fill="#06c" stroke="none" font-family="sans-serif">marking.plus</text>
<rect class="slot-box" x="2.25" y="2.25" width="1.5" height="1" fill="#06c" fill-opacity="0.12" stroke="#06c" stroke-width="0.03"/>
<text class="slot-id" x="2.25" y="2.15" font-size="0.3" text-anchor="start" fill="#06c" stroke="none" font-family="sans-serif">marking.sig</text>
<rect class="slot-box" x="-9.5" y="-0.5" width="6" height="1" fill="#06c" fill-opacity="0.12" stroke="#06c" stroke-width="0.03"/>
<text class="slot-id" x="-9.5" y="-0.6" font-size="0.3" text-anchor="start" fill="#06c" stroke="none" font-family="sans-serif">tag</text>
<rect class="lane" x="-2.25" y="-5.3" width="0.5" height="2.3" fill="#d00" fill-opacity="0.15" stroke="none"/>
<rect class="lane" x="-0.25" y="-5.3" width="0.5" height="2.3" fill="#d00" fill-opacity="0.15" stroke="none"/>
<rect class="lane" x="-2.25" y="3" width="0.5" height="2.3" fill="#d00" fill-opacity="0.15" stroke="none"/>
<rect class="lane" x="-0.25" y="3" width="0.5" height="2.3" fill="#d00" fill-opacity="0.15" stroke="none"/>
<rect class="lane" x="1.75" y="3" width="0.5" height="2.3" fill="#d00" fill-opacity="0.15" stroke="none"/>
<circle class="port" cx="-2" cy="-3" r="0.2" fill="#d00" stroke="none"/>
<text class="port-id" x="-2" y="-3.784" font-size="0.6" text-anchor="middle" fill="#d00" stroke="none" font-family="sans-serif">l</text>
<circle class="port" cx="0" cy="-3" r="0.2" fill="#d00" stroke="none"/>
<text class="port-id" x="0" y="-3.784" font-size="0.6" text-anchor="middle" fill="#d00" stroke="none" font-family="sans-serif">n</text>
<circle class="port" cx="-2" cy="3" r="0.2" fill="#d00" stroke="none"/>
<text class="port-id" x="-2" y="4.216" font-size="0.6" text-anchor="middle" fill="#d00" stroke="none" font-family="sans-serif">plus</text>
<circle class="port" cx="0" cy="3" r="0.2" fill="#d00" stroke="none"/>
<text class="port-id" x="0" y="4.216" font-size="0.6" text-anchor="middle" fill="#d00" stroke="none" font-family="sans-serif">minus</text>
<circle class="port" cx="2" cy="3" r="0.2" fill="#d00" stroke="none"/>
<text class="port-id" x="2" y="4.216" font-size="0.6" text-anchor="middle" fill="#d00" stroke="none" font-family="sans-serif">sig</text>
</g>
<g class="samples">
<text class="sample-text" x="-1.75" y="-2.39" font-size="1" text-anchor="start" fill="#c60" stroke="none" font-family="sans-serif">1</text>
<text class="sample-text" x="0.25" y="3.11" font-size="1" text-anchor="start" fill="#c60" stroke="none" font-family="sans-serif">4</text>
<text class="sample-text" x="0.25" y="-2.39" font-size="1" text-anchor="start" fill="#c60" stroke="none" font-family="sans-serif">2</text>
<text class="sample-text" x="-1.75" y="3.11" font-size="1" text-anchor="start" fill="#c60" stroke="none" font-family="sans-serif">3</text>
<text class="sample-text" x="2.25" y="3.11" font-size="1" text-anchor="start" fill="#c60" stroke="none" font-family="sans-serif">5</text>
<text class="sample-text" x="-3.5" y="0.36" font-size="1" text-anchor="end" fill="#c60" stroke="none" font-family="sans-serif">-X1</text>
</g>
</svg>
